<?xml version="1.0" encoding="iso-8859-1"?>
<!-- Generator: Adobe Illustrator 19.0.0, SVG Export Plug-In . SVG Version: 6.00 Build 0)  -->
<svg version="1.1" id="Layer_1" xmlns="http://www.w3.org/2000/svg" xmlns:xlink="http://www.w3.org/1999/xlink" x="0px" y="0px"
	 viewBox="0 0 512.001 512.001" style="enable-background:new 0 0 512.001 512.001;" xml:space="preserve">
<path style="fill:#FFFFFF;" d="M256,504C119.033,504,8,392.967,8,256S119.033,8,256,8S504,119.033,504,256
	C503.882,392.918,392.918,503.882,256,504z"/>
<path style="fill:#E21B1B;" d="M256,16c132.548,0,240,107.452,240,240s-107.452,240-240,240S16,388.548,16,256
	C16.387,123.612,123.612,16.387,256,16 M256,0C114.615,0,0,114.615,0,256s114.615,256,256,256s256-114.615,256-256
	C511.588,114.786,397.214,0.413,256,0z"/>
<path style="fill:#DD0032;" d="M256,52c112.666,0,204,91.334,204,204s-91.334,204-204,204S52,368.667,52,256
	C51.907,143.427,143.091,52.093,255.664,52C255.776,52,255.888,52,256,52 M256,36c-121.503,0-220,98.497-220,220s98.497,220,220,220
	s220-98.497,220-220c0.071-121.432-98.312-219.929-219.744-220C256.171,36,256.085,36,256,36z"/>
<path d="M256,468.001c-117.085,0-212-94.916-212-212S138.916,44,256,44s212,94.916,212,212C467.797,373,373,467.797,256,468.001z"/>
<path style="fill:#FFFFFF;" d="M241.6,379.312v-30.84c-18.076-0.205-35.799-5.019-51.496-13.984l8.585-29.872
	c15.033,8.901,32.131,13.721,49.6,13.984c20,0,33.696-9.856,33.696-25.112c0-14.304-11.128-23.52-34.648-32.112
	c-33.376-12.08-54.992-27.336-54.992-56.896c0-27.336,19.072-48.32,51.2-54.04v-31.144h26.064v29.6
	c15.222,0.165,30.213,3.75,43.864,10.488l-8.585,29.248c-13.331-6.998-28.143-10.707-43.2-10.816
	c-22.248,0-30.192,11.448-30.192,22.248c0,13.04,11.44,20.344,38.464,31.16c35.6,13.352,51.496,30.512,51.496,58.808
	c0,27.016-18.752,50.856-53.72,56.576v32.744L241.6,379.312z"/>
<g>
</g>
<g>
</g>
<g>
</g>
<g>
</g>
<g>
</g>
<g>
</g>
<g>
</g>
<g>
</g>
<g>
</g>
<g>
</g>
<g>
</g>
<g>
</g>
<g>
</g>
<g>
</g>
<g>
</g>
</svg>
